<svg width="33" height="33" viewBox="0 0 33 33" fill="none" xmlns="http://www.w3.org/2000/svg">
<circle cx="16.5" cy="16.5" r="15" fill="white" stroke="#FF0000" stroke-width="3"/>
<g clip-path="url(#clip0)">
<path d="M7.75313 20.625C7.97578 19.7137 8.37656 18.9942 9.08906 18.2747L12.7852 14.4375C13.0078 14.1977 13.1414 13.9578 13.2305 13.6701L13.3195 13.1904C13.4531 12.7587 13.3195 12.5189 12.8742 12.5189H12.607C12.2063 12.5189 12.0727 12.7587 11.9391 13.1904L11.5828 14.6294H9.35625L9.80156 13.0465C10.2914 11.032 11.182 10.3125 12.6516 10.3125H13.7203C15.5016 10.3125 16.0359 11.7035 15.5906 13.3343L15.457 13.8619C15.2789 14.5814 14.9227 15.157 14.3883 15.7326L10.7812 19.5218C10.5586 19.7616 10.425 19.9055 10.3359 20.1933V20.2413H13.7648L13.1414 22.6395H7.21875L7.75313 20.625Z" fill="black"/>
<path d="M17.8172 12.8067H16.4367L17.0602 10.4084H20.8008L17.55 22.6875H15.1898L17.8172 12.8067Z" fill="black"/>
<path d="M22.3148 18.2747H20.4L20.9789 16.1642H22.8937L23.4281 14.0538H25.432L24.8977 16.1642H26.8125L26.2336 18.2747H24.3187L23.7844 20.3852H21.7805L22.3148 18.2747Z" fill="black"/>
</g>
<defs>
<clipPath id="clip0">
<rect x="7.21875" y="10.3125" width="19.5938" height="12.375" fill="white"/>
</clipPath>
</defs>
</svg>
