<svg width="118" height="34" viewBox="0 0 118 34" fill="none" xmlns="http://www.w3.org/2000/svg">
<path d="M113.63 0.68C114.603 0.68 115.537 1.05612 116.226 1.72563C116.914 2.39513 117.301 3.30318 117.301 4.25V29.75C117.301 30.6968 116.914 31.6049 116.226 32.2744C115.537 32.9439 114.603 33.32 113.63 33.32H4.37037C3.39673 33.32 2.46297 32.9439 1.7745 32.2744C1.08604 31.6049 0.699259 30.6968 0.699259 29.75V4.25C0.699259 3.30318 1.08604 2.39513 1.7745 1.72563C2.46297 1.05612 3.39673 0.68 4.37037 0.68H113.63ZM113.63 0H4.37037C3.21128 0 2.09966 0.447767 1.28005 1.2448C0.460448 2.04183 0 3.12283 0 4.25V29.75C0 30.8772 0.460448 31.9582 1.28005 32.7552C2.09966 33.5522 3.21128 34 4.37037 34H113.63C114.789 34 115.9 33.5522 116.72 32.7552C117.54 31.9582 118 30.8772 118 29.75V4.25C118 3.12283 117.54 2.04183 116.72 1.2448C115.9 0.447767 114.789 0 113.63 0Z" fill="white"/>
<path d="M28.069 16.4161C28.0449 13.8058 30.2669 12.5359 30.3685 12.4768C29.1101 10.6926 27.1596 10.4488 26.4742 10.4294C24.836 10.2617 23.247 11.3826 22.4125 11.3826C21.5614 11.3826 20.2763 10.4456 18.8913 10.4731C17.1091 10.4998 15.4418 11.5033 14.5273 13.0615C12.6402 16.2387 14.0476 20.9077 15.8557 23.4758C16.7601 24.7336 17.817 26.1379 19.2003 26.0885C20.5536 26.0343 21.0592 25.2495 22.6923 25.2495C24.3105 25.2495 24.7852 26.0885 26.196 26.0569C27.6485 26.0343 28.5629 24.7935 29.4357 23.5244C30.4809 22.0828 30.9006 20.6631 30.9173 20.5902C30.8831 20.5789 28.0965 19.5446 28.069 16.4161Z" fill="white"/>
<path d="M25.404 8.73994C26.1319 7.85473 26.6299 6.65043 26.4917 5.42831C25.4381 5.47367 24.1206 6.13696 23.3619 7.00273C22.6907 7.76564 22.091 9.01611 22.2459 10.1921C23.4294 10.2779 24.6445 9.61137 25.404 8.73994Z" fill="white"/>
<path d="M47.6543 25.9078H45.763L44.727 22.7419H41.1258L40.1389 25.9078H38.2976L41.8654 15.1298H44.069L47.6543 25.9078ZM44.4147 21.4137L43.4777 18.5994C43.3786 18.3119 43.1929 17.6348 42.9189 16.569H42.8856C42.7765 17.0274 42.6008 17.7044 42.3592 18.5994L41.439 21.4137H44.4147Z" fill="white"/>
<path d="M56.8293 21.9264C56.8293 23.2481 56.462 24.2929 55.7275 25.0598C55.0696 25.7426 54.2526 26.0835 53.2773 26.0835C52.2246 26.0835 51.4684 25.7158 51.0079 24.9805H50.9746V29.0744H49.199V20.6945C49.199 19.8636 49.1765 19.0108 49.1332 18.1361H50.6947L50.7939 19.3679H50.8272C51.4193 18.4398 52.3179 17.9766 53.5238 17.9766C54.4666 17.9766 55.2536 18.3386 55.8832 19.0634C56.5145 19.7891 56.8293 20.7431 56.8293 21.9264ZM55.0204 21.9895C55.0204 21.2331 54.8455 20.6095 54.4941 20.1187C54.1102 19.6069 53.5946 19.3509 52.9484 19.3509C52.5103 19.3509 52.1122 19.4935 51.7566 19.7745C51.4001 20.058 51.167 20.4281 51.0579 20.8865C51.0029 21.1003 50.9754 21.2752 50.9754 21.4129V22.7087C50.9754 23.274 51.1536 23.751 51.5101 24.1406C51.8665 24.5302 52.3296 24.7245 52.8992 24.7245C53.568 24.7245 54.0885 24.4735 54.4608 23.973C54.8339 23.4716 55.0204 22.8108 55.0204 21.9895Z" fill="white"/>
<path d="M66.0214 21.9264C66.0214 23.2481 65.6541 24.2929 64.9187 25.0598C64.2616 25.7426 63.4446 26.0835 62.4694 26.0835C61.4167 26.0835 60.6605 25.7158 60.2008 24.9805H60.1675V29.0744H58.3919V20.6945C58.3919 19.8636 58.3694 19.0108 58.3261 18.1361H59.8877L59.9868 19.3679H60.0201C60.6114 18.4398 61.51 17.9766 62.7168 17.9766C63.6587 17.9766 64.4457 18.3386 65.077 19.0634C65.7058 19.7891 66.0214 20.7431 66.0214 21.9264ZM64.2125 21.9895C64.2125 21.2331 64.0368 20.6095 63.6853 20.1187C63.3014 19.6069 62.7875 19.3509 62.1404 19.3509C61.7015 19.3509 61.3043 19.4935 60.9478 19.7745C60.5914 20.058 60.359 20.4281 60.2499 20.8865C60.1958 21.1003 60.1675 21.2752 60.1675 21.4129V22.7087C60.1675 23.274 60.3457 23.751 60.7005 24.1406C61.0569 24.5293 61.52 24.7245 62.0913 24.7245C62.7601 24.7245 63.2806 24.4735 63.6529 23.973C64.026 23.4716 64.2125 22.8108 64.2125 21.9895Z" fill="white"/>
<path d="M76.2985 22.8853C76.2985 23.8021 75.9712 24.548 75.3141 25.1238C74.592 25.7531 73.5868 26.0674 72.2951 26.0674C71.1025 26.0674 70.1464 25.8438 69.4227 25.396L69.8341 23.9568C70.6136 24.4152 71.4689 24.6452 72.4009 24.6452C73.0696 24.6452 73.5901 24.4978 73.9641 24.2046C74.3364 23.9114 74.5221 23.5178 74.5221 23.027C74.5221 22.5897 74.3688 22.2212 74.0615 21.9224C73.7559 21.6235 73.2454 21.3457 72.5325 21.089C70.592 20.3852 69.6226 19.3542 69.6226 17.9985C69.6226 17.1125 69.9624 16.386 70.6428 15.8207C71.3207 15.2546 72.2251 14.9719 73.3561 14.9719C74.3647 14.9719 75.2025 15.1428 75.8713 15.4838L75.4274 16.8914C74.8027 16.5609 74.0965 16.3957 73.3062 16.3957C72.6815 16.3957 72.1935 16.5455 71.8437 16.8436C71.5481 17.11 71.3998 17.4348 71.3998 17.8195C71.3998 18.2455 71.5689 18.5978 71.9087 18.8748C72.2043 19.1307 72.7415 19.4077 73.521 19.7065C74.4746 20.0799 75.175 20.5164 75.6256 21.0169C76.0745 21.5158 76.2985 22.1402 76.2985 22.8853Z" fill="white"/>
<path d="M82.169 19.432H80.2118V23.2052C80.2118 24.1649 80.5566 24.6444 81.2479 24.6444C81.5652 24.6444 81.8283 24.6177 82.0365 24.5642L82.0857 25.8754C81.7359 26.0026 81.2753 26.0665 80.7049 26.0665C80.0036 26.0665 79.4556 25.8584 79.06 25.4429C78.6661 25.0266 78.4679 24.3285 78.4679 23.3478V19.4303H77.3019V18.1345H78.4679V16.7116L80.2118 16.1997V18.1345H82.169V19.432Z" fill="white"/>
<path d="M90.9994 21.958C90.9994 23.1526 90.648 24.1334 89.9467 24.9003C89.2114 25.69 88.2353 26.0836 87.0185 26.0836C85.8459 26.0836 84.9123 25.7054 84.2161 24.9489C83.5198 24.1925 83.1717 23.2377 83.1717 22.0868C83.1717 20.8825 83.5298 19.8961 84.2486 19.1291C84.9656 18.3613 85.9334 17.9774 87.1501 17.9774C88.3227 17.9774 89.2663 18.3557 89.9784 19.1129C90.6596 19.8475 90.9994 20.7958 90.9994 21.958ZM89.1572 22.0139C89.1572 21.2972 88.9998 20.6825 88.6808 20.1698C88.3086 19.5494 87.7764 19.2401 87.0868 19.2401C86.3731 19.2401 85.8309 19.5502 85.4587 20.1698C85.1397 20.6833 84.9823 21.3077 84.9823 22.0463C84.9823 22.7631 85.1397 23.3778 85.4587 23.8896C85.8426 24.51 86.3789 24.8194 87.071 24.8194C87.7489 24.8194 88.2811 24.5035 88.665 23.8734C88.9923 23.351 89.1572 22.7299 89.1572 22.0139Z" fill="white"/>
<path d="M96.7708 19.6546C96.595 19.6231 96.4076 19.6069 96.2111 19.6069C95.5865 19.6069 95.1034 19.8361 94.7636 20.2953C94.468 20.7002 94.3198 21.2121 94.3198 21.83V25.9078H92.545L92.5617 20.5836C92.5617 19.6879 92.5392 18.8723 92.495 18.1369H94.0416L94.1065 19.6239H94.1557C94.3431 19.1128 94.6387 18.7014 95.0435 18.3928C95.4391 18.1151 95.8663 17.9766 96.3269 17.9766C96.4909 17.9766 96.6392 17.9879 96.7708 18.0081V19.6546Z" fill="white"/>
<path d="M104.712 21.6543C104.712 21.9637 104.691 22.2245 104.647 22.4375H99.32C99.3409 23.2052 99.5982 23.7924 100.093 24.1973C100.542 24.5594 101.122 24.7408 101.835 24.7408C102.624 24.7408 103.343 24.6185 103.991 24.3731L104.269 25.5717C103.512 25.8924 102.62 26.052 101.589 26.052C100.35 26.052 99.3775 25.6973 98.6696 24.9886C97.9634 24.28 97.6094 23.3283 97.6094 22.1346C97.6094 20.9627 97.9384 19.9867 98.5972 19.2084C99.2867 18.3775 100.219 17.962 101.391 17.962C102.543 17.962 103.415 18.3775 104.007 19.2084C104.476 19.8685 104.712 20.6849 104.712 21.6543ZM103.019 21.2064C103.03 20.6946 102.915 20.2524 102.674 19.879C102.367 19.3988 101.894 19.159 101.259 19.159C100.678 19.159 100.206 19.3931 99.8456 19.8628C99.5499 20.2362 99.3742 20.6841 99.32 21.2056H103.019V21.2064Z" fill="white"/>
<path d="M44.6631 12.496H43.7395V11.1562H40.049V12.496H39.11L39.0792 10.4003H39.5295C39.7527 10.1907 39.931 9.88635 40.0644 9.48717C40.1978 9.0855 40.2837 8.63144 40.3222 8.12498L40.4684 5.70746H44.0012V10.4003H44.7131L44.6631 12.496ZM40.6301 10.4003H43.0314V6.47089H41.3959L41.3035 8.00523C41.2343 9.03061 41.0098 9.82897 40.6301 10.4003Z" fill="white"/>
<path d="M45.5728 9.09423C45.5728 8.69755 45.6536 8.34079 45.8153 8.02394C45.9769 7.7046 46.2039 7.4601 46.4964 7.29045C46.7889 7.1183 47.125 7.03223 47.5046 7.03223C48.0665 7.03223 48.5219 7.20812 48.8708 7.55989C49.2223 7.91167 49.4121 8.37821 49.4403 8.95951L49.4442 9.17282C49.4442 9.572 49.3646 9.92876 49.2056 10.2431C49.0491 10.5575 48.8233 10.8007 48.5283 10.9729C48.2358 11.145 47.8972 11.2311 47.5123 11.2311C46.9248 11.2311 46.4541 11.0415 46.1 10.6623C45.7485 10.2805 45.5728 9.77284 45.5728 9.13914V9.09423ZM46.5079 9.17282C46.5079 9.58946 46.5965 9.91629 46.7735 10.1533C46.9505 10.3878 47.1968 10.5051 47.5123 10.5051C47.8279 10.5051 48.0729 10.3853 48.2474 10.1458C48.4244 9.90631 48.5129 9.55578 48.5129 9.09423C48.5129 8.68508 48.4218 8.36074 48.2397 8.12124C48.0601 7.88173 47.8151 7.76198 47.5046 7.76198C47.1994 7.76198 46.9569 7.88048 46.7773 8.11749C46.5977 8.35201 46.5079 8.70379 46.5079 9.17282Z" fill="white"/>
<path d="M52.3396 10.5051C52.5731 10.5051 52.7668 10.439 52.9207 10.3067C53.0747 10.1745 53.1567 10.0111 53.167 9.8165H54.0483C54.038 10.0685 53.9572 10.3042 53.8058 10.5238C53.6545 10.7408 53.4492 10.913 53.1901 11.0402C52.931 11.1675 52.6513 11.2311 52.3512 11.2311C51.7688 11.2311 51.307 11.0477 50.9658 10.681C50.6246 10.3142 50.454 9.80776 50.454 9.16159V9.06804C50.454 8.45181 50.6233 7.95907 50.9619 7.58983C51.3006 7.2181 51.7624 7.03223 52.3473 7.03223C52.8425 7.03223 53.2453 7.17319 53.5557 7.45511C53.8687 7.73453 54.0329 8.10253 54.0483 8.55909H53.167C53.1567 8.32706 53.0747 8.13621 52.9207 7.98651C52.7694 7.83682 52.5757 7.76198 52.3396 7.76198C52.0369 7.76198 51.8034 7.86926 51.6392 8.08381C51.475 8.29588 51.3917 8.61896 51.3891 9.05307V9.19902C51.3891 9.63811 51.4699 9.96619 51.6315 10.1832C51.7957 10.3978 52.0318 10.5051 52.3396 10.5051Z" fill="white"/>
<path d="M58.4253 7.82934H57.0746V11.1562H56.1394V7.82934H54.8041V7.10708H58.4253V7.82934Z" fill="white"/>
<path d="M60.9475 9.85392L61.7941 7.10708H62.7908L61.136 11.77C60.882 12.4511 60.451 12.7916 59.843 12.7916C59.707 12.7916 59.557 12.7692 59.3928 12.7243V12.0207L59.5698 12.0319C59.8058 12.0319 59.9828 11.9895 60.1008 11.9047C60.2214 11.8224 60.3164 11.6827 60.3856 11.4856L60.5203 11.1375L59.058 7.10708H60.0662L60.9475 9.85392Z" fill="white"/>
<path d="M67.2563 11.1562H66.3212V7.84057H64.6972V11.1562H63.7621V7.10708H67.2563V11.1562Z" fill="white"/>
<path d="M72.1721 11.1562H71.237V9.52085H69.6169V11.1562H68.6817V7.10708H69.6169V8.79485H71.237V7.10708H72.1721V11.1562Z" fill="white"/>
<path d="M73.3897 9.09423C73.3897 8.69755 73.4706 8.34079 73.6322 8.02394C73.7938 7.7046 74.0209 7.4601 74.3133 7.29045C74.6058 7.1183 74.9419 7.03223 75.3216 7.03223C75.8834 7.03223 76.3388 7.20812 76.6877 7.55989C77.0392 7.91167 77.229 8.37821 77.2573 8.95951L77.2611 9.17282C77.2611 9.572 77.1816 9.92876 77.0225 10.2431C76.866 10.5575 76.6403 10.8007 76.3452 10.9729C76.0527 11.145 75.7141 11.2311 75.3293 11.2311C74.7418 11.2311 74.271 11.0415 73.917 10.6623C73.5655 10.2805 73.3897 9.77284 73.3897 9.13914V9.09423ZM74.3249 9.17282C74.3249 9.58946 74.4134 9.91629 74.5904 10.1533C74.7674 10.3878 75.0137 10.5051 75.3293 10.5051C75.6448 10.5051 75.8898 10.3853 76.0643 10.1458C76.2413 9.90631 76.3298 9.55578 76.3298 9.09423C76.3298 8.68508 76.2388 8.36074 76.0566 8.12124C75.877 7.88173 75.632 7.76198 75.3216 7.76198C75.0163 7.76198 74.7738 7.88048 74.5943 8.11749C74.4147 8.35201 74.3249 8.70379 74.3249 9.17282Z" fill="white"/>
<path d="M80.8739 11.1562V7.10708H82.5633C83.1328 7.10708 83.5664 7.20438 83.864 7.39897C84.1616 7.59108 84.3104 7.86801 84.3104 8.22976C84.3104 8.41688 84.2501 8.58528 84.1295 8.73497C84.0115 8.88217 83.8358 8.99569 83.6023 9.07552C83.8743 9.13041 84.0898 9.24143 84.2488 9.40859C84.4079 9.57574 84.4874 9.77284 84.4874 9.99987C84.4874 10.3766 84.3438 10.6635 84.0564 10.8606C83.7716 11.0577 83.3612 11.1562 82.825 11.1562H80.8739ZM81.809 9.43104V10.4377H82.8327C83.3124 10.4377 83.5523 10.2706 83.5523 9.93625C83.5523 9.59944 83.3086 9.43104 82.8211 9.43104H81.809ZM81.809 8.77988H82.5787C83.1097 8.77988 83.3753 8.62769 83.3753 8.32332C83.3753 8.00398 83.1238 7.83932 82.621 7.82934H81.809V8.77988Z" fill="white"/>
</svg>
