<svg width="118" height="35" viewBox="0 0 118 35" fill="none" xmlns="http://www.w3.org/2000/svg">
<path d="M113.63 0.7C114.603 0.7 115.537 1.08719 116.226 1.77638C116.914 2.46558 117.301 3.40033 117.301 4.375V30.625C117.301 31.5997 116.914 32.5344 116.226 33.2236C115.537 33.9128 114.603 34.3 113.63 34.3H4.37037C3.39673 34.3 2.46297 33.9128 1.7745 33.2236C1.08604 32.5344 0.699259 31.5997 0.699259 30.625V4.375C0.699259 3.40033 1.08604 2.46558 1.7745 1.77638C2.46297 1.08719 3.39673 0.7 4.37037 0.7H113.63ZM113.63 0H4.37037C3.21128 0 2.09966 0.460936 1.28005 1.28141C0.460448 2.10188 0 3.21468 0 4.375V30.625C0 31.7853 0.460448 32.8981 1.28005 33.7186C2.09966 34.5391 3.21128 35 4.37037 35H113.63C114.789 35 115.9 34.5391 116.72 33.7186C117.54 32.8981 118 31.7853 118 30.625V4.375C118 3.21468 117.54 2.10188 116.72 1.28141C115.9 0.460936 114.789 0 113.63 0Z" fill="white"/>
<path d="M59.5596 19.0313C58.8256 19.0347 58.1091 19.2558 57.5005 19.6665C56.8919 20.0772 56.4185 20.6592 56.14 21.339C55.8615 22.0188 55.7904 22.766 55.9357 23.4862C56.0811 24.2064 56.4362 24.8674 56.9564 25.3857C57.4767 25.904 58.1386 26.2565 58.8587 26.3985C59.5788 26.5406 60.3249 26.466 61.0026 26.184C61.6804 25.902 62.2596 25.4254 62.667 24.8142C63.0744 24.203 63.2918 23.4848 63.2919 22.75C63.299 22.2582 63.2072 21.77 63.0219 21.3144C62.8366 20.8589 62.5617 20.4453 62.2135 20.0983C61.8652 19.7513 61.4508 19.4781 60.9949 19.2947C60.5389 19.1114 60.0508 19.0218 59.5596 19.0313ZM59.5596 25.0075C59.1082 25.0391 58.6577 24.934 58.2668 24.706C57.8758 24.4779 57.5624 24.1374 57.3674 23.7286C57.1723 23.3199 57.1046 22.8619 57.173 22.4141C57.2415 21.9664 57.4429 21.5496 57.7511 21.2179C58.0593 20.8863 58.46 20.6551 58.9012 20.5544C59.3424 20.4538 59.8036 20.4883 60.2249 20.6536C60.6462 20.8188 61.0081 21.1071 61.2636 21.481C61.519 21.8549 61.6562 22.297 61.6573 22.75C61.6714 23.037 61.6279 23.324 61.5295 23.5939C61.431 23.8638 61.2796 24.1113 61.0841 24.3217C60.8885 24.5321 60.6529 24.7011 60.3911 24.8189C60.1293 24.9367 59.8465 25.0009 59.5596 25.0075ZM51.4219 19.0313C50.6876 19.033 49.9702 19.2526 49.3605 19.6622C48.7507 20.0719 48.2759 20.6533 47.9961 21.333C47.7163 22.0126 47.644 22.7601 47.7883 23.4809C47.9326 24.2016 48.2871 24.8634 48.807 25.3826C49.3269 25.9018 49.9888 26.2552 50.7091 26.3979C51.4295 26.5407 52.176 26.4666 52.8543 26.1848C53.5326 25.9031 54.1122 25.4265 54.52 24.8151C54.9278 24.2038 55.1455 23.4851 55.1455 22.75C55.1526 22.2582 55.0608 21.77 54.8755 21.3144C54.6903 20.8589 54.4153 20.4453 54.0671 20.0983C53.7189 19.7513 53.3044 19.4781 52.8485 19.2947C52.3926 19.1114 51.9044 19.0218 51.4132 19.0313H51.4219ZM51.4219 25.0075C50.9703 25.0409 50.5191 24.9374 50.1271 24.7105C49.7351 24.4836 49.4204 24.1438 49.2239 23.7353C49.0275 23.3269 48.9585 22.8687 49.0258 22.4204C49.0932 21.9721 49.2938 21.5545 49.6015 21.222C49.9092 20.8894 50.3099 20.6573 50.7512 20.5559C51.1926 20.4544 51.6542 20.4884 52.076 20.6532C52.4979 20.8181 52.8603 21.1063 53.1163 21.4803C53.3722 21.8542 53.5097 22.2967 53.511 22.75C53.525 23.037 53.4816 23.324 53.3831 23.5939C53.2847 23.8638 53.1332 24.1113 52.9377 24.3217C52.7422 24.5321 52.5066 24.7011 52.2447 24.8189C51.9829 24.9367 51.7002 25.0009 51.4132 25.0075H51.4219ZM41.7284 20.1775V21.7525H45.5044C45.4452 22.4943 45.1372 23.1943 44.6304 23.7388C44.2526 24.124 43.7984 24.4257 43.2972 24.6247C42.7959 24.8236 42.2585 24.9152 41.7197 24.8938C40.607 24.8938 39.5398 24.4513 38.753 23.6636C37.9662 22.876 37.5241 21.8077 37.5241 20.6938C37.5241 19.5799 37.9662 18.5116 38.753 17.7239C39.5398 16.9363 40.607 16.4938 41.7197 16.4938C42.7841 16.4764 43.812 16.8823 44.5779 17.6225L45.688 16.5113C45.171 15.9872 44.5541 15.5723 43.874 15.2912C43.1938 15.0102 42.4642 14.8686 41.7284 14.875C40.9514 14.8447 40.1762 14.9718 39.4494 15.2486C38.7226 15.5254 38.0591 15.9462 37.4986 16.4859C36.9381 17.0255 36.4922 17.6729 36.1877 18.3892C35.8831 19.1055 35.7261 19.8759 35.7261 20.6544C35.7261 21.4329 35.8831 22.2033 36.1877 22.9196C36.4922 23.6359 36.9381 24.2832 37.4986 24.8229C38.0591 25.3625 38.7226 25.7834 39.4494 26.0602C40.1762 26.337 40.9514 26.464 41.7284 26.4338C42.4766 26.4676 43.2233 26.3406 43.9184 26.0614C44.6134 25.7822 45.2407 25.3572 45.7579 24.815C46.6737 23.8078 47.1626 22.4838 47.1215 21.1225C47.1243 20.7909 47.095 20.4597 47.0341 20.1338L41.7284 20.1775ZM81.3327 21.4025C81.1048 20.7312 80.6785 20.1449 80.1104 19.7215C79.5422 19.2981 78.859 19.0574 78.1511 19.0313C77.673 19.0303 77.1998 19.1276 76.7607 19.317C76.3216 19.5064 75.926 19.7839 75.5983 20.1325C75.2706 20.481 75.0178 20.8931 74.8555 21.3433C74.6932 21.7936 74.6249 22.2723 74.6548 22.75C74.6442 23.2391 74.7321 23.7252 74.9134 24.1795C75.0947 24.6338 75.3656 25.0468 75.7099 25.3939C76.0542 25.741 76.4648 26.0151 76.9173 26.1998C77.3698 26.3844 77.8548 26.4759 78.3434 26.4688C78.9548 26.4721 79.5575 26.3235 80.0975 26.0364C80.6375 25.7494 81.098 25.3327 81.4376 24.8238L80.1702 23.9488C79.9811 24.2644 79.7133 24.5256 79.393 24.7065C79.0728 24.8875 78.7111 24.9822 78.3434 24.9813C77.9648 24.9957 77.5906 24.8958 77.2695 24.6945C76.9483 24.4932 76.6951 24.1998 76.5428 23.8525L81.5163 21.7963L81.3327 21.4025ZM76.2631 22.645C76.2454 22.3744 76.2818 22.1029 76.3702 21.8465C76.4586 21.5901 76.5972 21.354 76.7779 21.1519C76.9586 20.9498 77.1778 20.7859 77.4226 20.6696C77.6674 20.5534 77.9329 20.4872 78.2036 20.475C78.4855 20.4564 78.7667 20.5211 79.0122 20.6611C79.2577 20.8011 79.4568 21.0103 79.5846 21.2625L76.2631 22.645ZM72.2249 26.25H73.8594V15.3125H72.2249V26.25ZM69.5502 19.8625H69.489C69.2427 19.5868 68.9409 19.3663 68.6035 19.2155C68.2661 19.0647 67.9006 18.987 67.5311 18.9875C66.5759 19.0339 65.6751 19.4464 65.0155 20.1395C64.3559 20.8327 63.9879 21.7533 63.9879 22.7106C63.9879 23.668 64.3559 24.5886 65.0155 25.2818C65.6751 25.9749 66.5759 26.3874 67.5311 26.4338C67.9015 26.44 68.2688 26.3649 68.607 26.2137C68.9453 26.0625 69.2464 25.839 69.489 25.5588H69.5415V26.0925C69.5415 27.5188 68.781 28.28 67.5573 28.28C67.1498 28.2705 66.7543 28.1397 66.4212 27.9044C66.0881 27.6691 65.8324 27.34 65.6868 26.9588L64.2621 27.5538C64.5303 28.2068 64.9872 28.7648 65.5744 29.1561C66.1615 29.5474 66.852 29.7542 67.5573 29.75C69.4716 29.75 71.0536 28.6213 71.0536 25.8738V19.25H69.5502V19.8625ZM67.6797 25.0075C67.1159 24.9578 66.5911 24.6984 66.2089 24.2805C65.8266 23.8627 65.6146 23.3166 65.6146 22.75C65.6146 22.1834 65.8266 21.6374 66.2089 21.2195C66.5911 20.8016 67.1159 20.5423 67.6797 20.4925C67.9593 20.5069 68.2331 20.5771 68.4851 20.699C68.7371 20.821 68.9622 20.9922 69.1471 21.2026C69.332 21.4129 69.473 21.6582 69.5618 21.924C69.6505 22.1898 69.6852 22.4706 69.6638 22.75C69.6877 23.0306 69.6544 23.3131 69.5661 23.5805C69.4778 23.8479 69.3362 24.0945 69.1499 24.3056C68.9636 24.5166 68.7365 24.6876 68.4823 24.8083C68.2281 24.9289 67.9521 24.9967 67.671 25.0075H67.6797ZM88.9896 15.3125H85.0825V26.25H86.717V22.1025H88.9984C89.4642 22.136 89.932 22.0731 90.3724 21.9176C90.8129 21.7622 91.2167 21.5176 91.5585 21.1991C91.9004 20.8805 92.1731 20.4949 92.3595 20.0662C92.546 19.6376 92.6422 19.175 92.6422 18.7075C92.6422 18.24 92.546 17.7775 92.3595 17.3488C92.1731 16.9201 91.9004 16.5345 91.5585 16.216C91.2167 15.8974 90.8129 15.6528 90.3724 15.4974C89.932 15.3419 89.4642 15.279 88.9984 15.3125H88.9896ZM88.9896 20.5625H86.7083V16.835H89.0246C89.5218 16.835 89.9987 17.0328 90.3503 17.3847C90.702 17.7367 90.8995 18.2141 90.8995 18.7119C90.8995 19.2097 90.702 19.6871 90.3503 20.039C89.9987 20.391 89.5218 20.5888 89.0246 20.5888L88.9896 20.5625ZM99.0677 18.9875C98.4726 18.9519 97.8802 19.0911 97.3631 19.388C96.846 19.6849 96.4268 20.1266 96.157 20.6588L97.608 21.2625C97.7511 20.9986 97.9677 20.782 98.2315 20.639C98.4953 20.4961 98.795 20.433 99.0939 20.4575C99.3014 20.4333 99.5117 20.4506 99.7124 20.5085C99.9131 20.5665 100.1 20.6639 100.263 20.795C100.426 20.9261 100.561 21.0884 100.66 21.2723C100.76 21.4563 100.821 21.6582 100.842 21.8663V21.98C100.317 21.7018 99.7316 21.5575 99.1376 21.56C97.573 21.56 95.991 22.435 95.991 24.0188C96.0064 24.3565 96.0893 24.6876 96.2348 24.9927C96.3803 25.2977 96.5854 25.5705 96.8381 25.7948C97.0907 26.0192 97.3857 26.1905 97.7056 26.2988C98.0255 26.407 98.3638 26.4499 98.7006 26.425C99.1122 26.4546 99.5242 26.3727 99.8933 26.188C100.262 26.0032 100.575 25.7224 100.798 25.375H100.851V26.25H102.424V22.0413C102.424 20.125 100.973 19.0138 99.1114 19.0138L99.0677 18.9875ZM98.8667 24.9813C98.3335 24.9813 97.5905 24.71 97.5905 24.0538C97.5905 23.1788 98.517 22.89 99.3387 22.89C99.8579 22.8772 100.371 23.0041 100.825 23.2575C100.77 23.7312 100.546 24.1692 100.194 24.4908C99.8426 24.8124 99.3866 24.9959 98.9104 25.0075L98.8667 24.9813ZM108.158 19.25L106.288 23.9925H106.235L104.295 19.25H102.547L105.457 25.8825L103.796 29.5663H105.501L109.976 19.25H108.158ZM93.4649 26.25H95.0994V15.3125H93.4649V26.25Z" fill="white"/>
<path d="M36.8075 12.4863H36.1607V10.7363H36.7114C36.9625 10.4699 37.1521 10.1516 37.2669 9.80389C37.3817 9.45615 37.4188 9.08744 37.3757 8.72376V6.12501H40.872V10.7275H41.4576V12.4775H40.8108V11.375H36.8075V12.4863ZM38.0225 8.75001C38.0633 9.45582 37.8896 10.1574 37.5243 10.7625H40.1465V6.77251H38.0225V8.75001ZM46.6846 10.6925C46.1736 11.2012 45.4822 11.4867 44.7616 11.4867C44.041 11.4867 43.3496 11.2012 42.8386 10.6925C42.342 10.1662 42.0653 9.46965 42.0653 8.74564C42.0653 8.02163 42.342 7.32505 42.8386 6.79876C43.0905 6.54479 43.3901 6.34321 43.7201 6.20566C44.0501 6.06811 44.4041 5.99729 44.7616 5.99729C45.1191 5.99729 45.4731 6.06811 45.8031 6.20566C46.1331 6.34321 46.4327 6.54479 46.6846 6.79876C47.1832 7.32405 47.4612 8.021 47.4612 8.74564C47.4612 9.47027 47.1832 10.1672 46.6846 10.6925ZM43.3369 10.255C43.7153 10.6322 44.2276 10.844 44.7616 10.844C45.2956 10.844 45.8079 10.6322 46.1863 10.255C46.5598 9.8429 46.7666 9.30641 46.7666 8.75001C46.7666 8.19361 46.5598 7.65712 46.1863 7.24501C45.8079 6.86778 45.2956 6.65599 44.7616 6.65599C44.2276 6.65599 43.7153 6.86778 43.3369 7.24501C42.9634 7.65712 42.7566 8.19361 42.7566 8.75001C42.7566 9.30641 42.9634 9.8429 43.3369 10.255ZM50.8539 11.4888C50.4931 11.4959 50.1345 11.4299 49.7998 11.2947C49.4651 11.1595 49.1612 10.9579 48.9064 10.702C48.6516 10.4462 48.4512 10.1413 48.3172 9.80583C48.1832 9.47036 48.1185 9.11121 48.1268 8.75001C48.1185 8.38881 48.1832 8.02967 48.3172 7.69419C48.4512 7.35872 48.6516 7.05387 48.9064 6.79799C49.1612 6.5421 49.4651 6.34049 49.7998 6.20529C50.1345 6.07008 50.4931 6.00408 50.8539 6.01126C51.2196 6.0022 51.5827 6.07622 51.9157 6.22777C52.2488 6.37932 52.5432 6.60445 52.7769 6.88626L52.3049 7.34126C52.1322 7.12185 51.9096 6.947 51.6557 6.83131C51.4017 6.71562 51.1238 6.66245 50.8452 6.67626C50.5769 6.66928 50.3099 6.71686 50.0605 6.81612C49.8111 6.91539 49.5845 7.06427 49.3942 7.25376C49.0152 7.66834 48.805 8.20993 48.805 8.77189C48.805 9.33384 49.0152 9.87544 49.3942 10.29C49.5845 10.4795 49.8111 10.6284 50.0605 10.7276C50.3099 10.8269 50.5769 10.8745 50.8452 10.8675C51.1528 10.8648 51.456 10.7934 51.7327 10.6587C52.0094 10.524 52.2526 10.3293 52.4447 10.0888L52.9167 10.5613C52.6788 10.8501 52.3804 11.0831 52.0426 11.2438C51.6695 11.4129 51.2634 11.4966 50.8539 11.4888ZM55.6613 11.375H54.9883V6.77251H53.5198V6.12501H57.121V6.77251H55.6613V11.375ZM61.7536 6.12501L59.7695 10.5525C59.69 10.8144 59.5313 11.0452 59.3153 11.2129C59.0992 11.3806 58.8364 11.477 58.5632 11.4888C58.3826 11.4865 58.2042 11.4478 58.0388 11.375L58.2136 10.7538C58.3198 10.8157 58.4403 10.8489 58.5632 10.85C58.6917 10.8597 58.82 10.8291 58.9303 10.7625C59.0356 10.6733 59.1168 10.5589 59.1663 10.43L59.3586 10.01L57.6105 6.13376H58.4059L59.6995 9.14376L60.9582 6.12501H61.7536ZM62.514 11.375V6.12501H66.3075V11.375H65.6345V6.77251H63.1871V11.375H62.514ZM67.505 11.375V6.12501H68.178V8.37376H70.8003V6.12501H71.4733V11.375H70.8003V9.00376H68.178V11.375H67.505ZM76.9712 10.6925C76.4602 11.2012 75.7689 11.4867 75.0483 11.4867C74.3276 11.4867 73.6363 11.2012 73.1253 10.6925C72.6286 10.1662 72.3519 9.46965 72.3519 8.74564C72.3519 8.02163 72.6286 7.32505 73.1253 6.79876C73.3772 6.54479 73.6768 6.34321 74.0068 6.20566C74.3368 6.06811 74.6908 5.99729 75.0483 5.99729C75.4058 5.99729 75.7597 6.06811 76.0898 6.20566C76.4198 6.34321 76.7194 6.54479 76.9712 6.79876C77.4699 7.32405 77.7479 8.021 77.7479 8.74564C77.7479 9.47027 77.4699 10.1672 76.9712 10.6925ZM73.6235 10.255C74.0019 10.6322 74.5142 10.844 75.0483 10.844C75.5823 10.844 76.0946 10.6322 76.473 10.255C76.8464 9.8429 77.0533 9.30641 77.0533 8.75001C77.0533 8.19361 76.8464 7.65712 76.473 7.24501C76.0946 6.86778 75.5823 6.65599 75.0483 6.65599C74.5142 6.65599 74.0019 6.86778 73.6235 7.24501C73.2501 7.65712 73.0432 8.19361 73.0432 8.75001C73.0432 9.30641 73.2501 9.8429 73.6235 10.255ZM80.4938 11.375V6.12501H82.3905C82.7843 6.11757 83.166 6.26163 83.4569 6.52751C83.6029 6.6544 83.7193 6.81187 83.7979 6.98877C83.8764 7.16568 83.9152 7.35771 83.9114 7.55126C83.9155 7.7845 83.8484 8.01345 83.7191 8.20751C83.5907 8.39601 83.412 8.54459 83.2034 8.63626C83.4569 8.72028 83.6793 8.87884 83.8414 9.09126C84.0095 9.30564 84.099 9.57127 84.0949 9.84376C84.0994 10.0455 84.0594 10.2457 83.9778 10.4302C83.8963 10.6147 83.7751 10.7789 83.6229 10.9113C83.3186 11.1923 82.9181 11.3458 82.5041 11.34L80.4938 11.375ZM81.1668 8.37376H82.3905C82.5048 8.37854 82.6187 8.35831 82.7244 8.31448C82.8301 8.27066 82.9249 8.20429 83.0023 8.12001C83.0797 8.04977 83.1422 7.96463 83.186 7.8697C83.2298 7.77476 83.2541 7.67197 83.2573 7.56744C83.2606 7.46292 83.2428 7.3588 83.205 7.26132C83.1672 7.16383 83.1102 7.07496 83.0373 7.00001C82.9643 6.9173 82.8739 6.85169 82.7727 6.80784C82.6715 6.76399 82.5619 6.74296 82.4517 6.74626H81.2018L81.1668 8.37376ZM81.1668 10.7275H82.5216C82.64 10.7315 82.7578 10.7092 82.8666 10.6623C82.9754 10.6155 83.0725 10.5451 83.1509 10.4563C83.305 10.2962 83.3926 10.0835 83.3957 9.86126C83.3957 9.6292 83.3036 9.40664 83.1397 9.24254C82.9757 9.07845 82.7534 8.98626 82.5216 8.98626H81.193L81.1668 10.7275Z" fill="white"/>
<path fill-rule="evenodd" clip-rule="evenodd" d="M44.7616 6.08479C44.4156 6.08479 44.0731 6.15332 43.7537 6.28644C43.4347 6.41942 43.145 6.61422 42.9014 6.85964C42.4206 7.36959 42.1527 8.04434 42.1527 8.74564C42.1527 9.44684 42.4205 10.1215 42.9012 10.6314C43.3958 11.1232 44.0645 11.3992 44.7616 11.3992C45.4587 11.3992 46.1275 11.1232 46.622 10.6313C47.1047 10.1224 47.3738 9.44743 47.3738 8.74564C47.3738 8.04376 47.1046 7.36867 46.6219 6.85973C46.3783 6.61427 46.0886 6.41943 45.7695 6.28644C45.4501 6.15332 45.1076 6.08479 44.7616 6.08479ZM43.6865 6.12488C44.0272 5.98289 44.3926 5.90979 44.7616 5.90979C45.1306 5.90979 45.496 5.98289 45.8367 6.12488C46.1774 6.26687 46.4866 6.47495 46.7466 6.73712L46.7479 6.73847C47.262 7.28002 47.5487 7.99857 47.5487 8.74564C47.5487 9.49271 47.262 10.2112 46.7479 10.7528L46.7462 10.7546C46.2189 11.2796 45.5053 11.5742 44.7616 11.5742C44.0179 11.5742 43.3044 11.2795 42.777 10.7546L42.7751 10.7526C42.2631 10.2101 41.9779 9.49199 41.9779 8.74564C41.9779 7.99928 42.2631 7.28121 42.7751 6.73867L42.7766 6.7371C43.0366 6.47493 43.3458 6.26687 43.6865 6.12488ZM75.0483 6.08479C74.7023 6.08479 74.3598 6.15332 74.0404 6.28644C73.7213 6.41941 73.4317 6.6142 73.1881 6.8596C72.7072 7.36956 72.4393 8.04432 72.4393 8.74564C72.4393 9.44685 72.7072 10.1215 73.1879 10.6314C73.6824 11.1232 74.3512 11.3992 75.0483 11.3992C75.7454 11.3992 76.4142 11.1232 76.9088 10.6313C77.3914 10.1224 77.6605 9.4474 77.6605 8.74564C77.6605 8.04377 77.3913 7.36869 76.9086 6.85975C76.6649 6.61428 76.3753 6.41944 76.0562 6.28644C75.7368 6.15332 75.3942 6.08479 75.0483 6.08479ZM73.9732 6.12488C74.3139 5.98289 74.6792 5.90979 75.0483 5.90979C75.4173 5.90979 75.7827 5.98289 76.1234 6.12488C76.464 6.26687 76.7733 6.47495 77.0333 6.73712L77.0346 6.73847C77.5487 7.28004 77.8353 7.99857 77.8353 8.74564C77.8353 9.49271 77.5487 10.2112 77.0346 10.7528L77.0329 10.7546C76.5055 11.2796 75.792 11.5742 75.0483 11.5742C74.3045 11.5742 73.591 11.2795 73.0637 10.7546L73.0617 10.7526C72.5497 10.2101 72.2645 9.49199 72.2645 8.74564C72.2645 7.99928 72.5498 7.28121 73.0618 6.73867L73.0633 6.7371C73.3233 6.47493 73.6325 6.26687 73.9732 6.12488ZM51.8796 6.30742C51.5585 6.16135 51.2086 6.09 50.8561 6.09874L50.8522 6.09883C50.5031 6.09189 50.1563 6.15564 49.8325 6.28643C49.5088 6.41721 49.2148 6.61224 48.9683 6.85976C48.7219 7.10728 48.528 7.40217 48.3984 7.72668C48.2688 8.05119 48.2061 8.3986 48.2142 8.74799L48.2143 8.75203C48.2062 9.10143 48.2688 9.44883 48.3984 9.77334C48.528 10.0979 48.7219 10.3927 48.9683 10.6403C49.2148 10.8878 49.5088 11.0828 49.8325 11.2136C50.1563 11.3444 50.5031 11.4082 50.8522 11.4013L50.8539 11.4888L50.8556 11.4013C51.2518 11.4089 51.6448 11.328 52.0058 11.1644C52.3079 11.0206 52.5773 10.817 52.7979 10.566L52.4504 10.2182C52.261 10.4346 52.03 10.6113 51.7709 10.7374C51.4828 10.8777 51.1671 10.952 50.8467 10.955C50.5668 10.9622 50.2884 10.9125 50.0282 10.809C49.7679 10.7053 49.5312 10.5499 49.3325 10.352L49.3296 10.3491C48.9359 9.91844 48.7176 9.35571 48.7176 8.77189C48.7176 8.18806 48.936 7.6254 49.3297 7.19469L49.3325 7.19166C49.5311 6.99382 49.7679 6.83845 50.0282 6.73481C50.2876 6.63159 50.5651 6.58189 50.8441 6.58871C51.1356 6.57479 51.4263 6.63065 51.6919 6.75167C51.9293 6.85981 52.1405 7.01718 52.3119 7.21295L52.6567 6.88059C52.4406 6.63763 52.176 6.44229 51.8796 6.30742ZM50.8539 11.5763C50.4819 11.5835 50.1122 11.5153 49.7671 11.3759C49.4215 11.2363 49.1077 11.0281 48.8445 10.7638C48.5814 10.4996 48.3744 10.1847 48.2361 9.83831C48.098 9.4925 48.031 9.12233 48.0394 8.75001C48.031 8.37769 48.098 8.00752 48.2361 7.66171C48.3744 7.31528 48.5814 7.00046 48.8445 6.73621C49.1077 6.47197 49.4215 6.26377 49.7671 6.12414C50.1121 5.98476 50.4817 5.9166 50.8537 5.92374C51.232 5.91466 51.6074 5.99136 51.9519 6.14811C52.297 6.30513 52.602 6.5384 52.8441 6.83038L52.896 6.89292L52.2959 7.47133L52.2362 7.3954C52.0722 7.18697 51.8607 7.02085 51.6195 6.91095C51.3782 6.80104 51.1142 6.75054 50.8495 6.76365L50.8429 6.76398C50.5864 6.75731 50.3312 6.80254 50.0928 6.89743C49.8551 6.99207 49.6389 7.13389 49.4573 7.31435C49.0939 7.71259 48.8924 8.23248 48.8924 8.77189C48.8924 9.3113 49.0939 9.83118 49.4573 10.2294C49.6389 10.4099 49.8551 10.5517 50.0928 10.6463C50.3312 10.7412 50.5864 10.7867 50.8429 10.78L50.8444 10.78C51.1391 10.7774 51.4294 10.7091 51.6945 10.5801C51.9595 10.451 52.1924 10.2645 52.3764 10.0341L52.4374 9.95774L53.0347 10.5556L52.9842 10.6169C52.7381 10.9157 52.4295 11.1566 52.0801 11.3228L52.0787 11.3235C51.6943 11.4978 51.2759 11.5841 50.8539 11.5763ZM83.3979 6.59213C83.1236 6.34135 82.7636 6.20547 82.3921 6.2125L82.3905 6.21251H80.5812V11.286L82.5026 11.2525L82.5053 11.2525C82.897 11.258 83.2758 11.1128 83.5637 10.8469L83.5656 10.8452C83.7081 10.7213 83.8215 10.5675 83.8979 10.3948C83.9743 10.222 84.0117 10.0346 84.0076 9.8457L84.0075 9.84245C84.0113 9.59 83.9284 9.3439 83.7727 9.14528L83.772 9.14439C83.6205 8.94595 83.4128 8.79782 83.1759 8.71933L82.9598 8.64772L83.1683 8.55614C83.3618 8.47113 83.5275 8.3334 83.6466 8.15865C83.7659 7.97947 83.8278 7.76812 83.824 7.5528V7.54955C83.8275 7.36881 83.7913 7.1895 83.718 7.02431C83.6447 6.85912 83.536 6.71208 83.3996 6.5936L83.3979 6.59213ZM83.515 6.46219C83.2079 6.18184 82.8052 6.02987 82.3897 6.03751H80.4063V11.464L82.5029 11.4275L82.5043 11.4275C82.9398 11.4332 83.3609 11.2718 83.6812 10.9765C83.8426 10.8359 83.9712 10.6615 84.0578 10.4656C84.1443 10.2699 84.1869 10.0575 84.1824 9.84347L84.1823 9.84507L84.0949 9.84376L84.1823 9.84182L84.1824 9.84347C84.1864 9.55169 84.0904 9.26731 83.9105 9.03766C83.7769 8.86272 83.6049 8.72209 83.4089 8.62594C83.5597 8.53087 83.6901 8.40541 83.7913 8.25679L83.7918 8.25607C83.9307 8.04763 84.0029 7.80182 83.9988 7.55132L83.9988 7.55297L83.9114 7.55126L83.9988 7.54972L83.9988 7.55132C84.0026 7.34551 83.9613 7.14136 83.8778 6.95324C83.7942 6.76497 83.6704 6.59735 83.515 6.46219ZM37.2883 6.03751H40.9594V10.64H41.545V12.565H40.7234V11.4625H36.8949V12.5738H36.0733V10.6488H36.6733C36.903 10.3974 37.077 10.1002 37.1839 9.77644C37.2946 9.44086 37.3305 9.08503 37.2889 8.73407L37.2883 8.72894V6.03751ZM37.4631 6.21251V8.71863C37.5067 9.09334 37.4681 9.4731 37.3499 9.83134C37.2311 10.1912 37.0348 10.5206 36.7749 10.7963L36.7491 10.8238H36.2481V12.3988H36.7201V11.2875H40.8982V12.39H41.3702V10.815H40.7846V6.21251H37.4631ZM53.4324 6.03751H57.2084V6.86001H55.7487V11.4625H54.9009V6.86001H53.4324V6.03751ZM53.6072 6.21251V6.68501H55.0757V11.2875H55.5739V6.68501H57.0336V6.21251H53.6072ZM60.9 6.03751H61.8886L59.8514 10.5833C59.7662 10.8604 59.5977 11.1044 59.3688 11.282C59.1384 11.4609 58.8582 11.5636 58.567 11.5762L58.5621 11.5764C58.3697 11.5739 58.1798 11.5326 58.0036 11.4551L57.934 11.4245L58.1601 10.6213L58.2576 10.6781C58.3507 10.7324 58.4563 10.7615 58.5641 10.7625L58.5698 10.7626C58.6779 10.7707 58.7858 10.7459 58.8792 10.6911C58.9707 10.6121 59.0413 10.5116 59.0848 10.3986L59.0867 10.3935L59.2626 10.0097L57.4751 6.04626H58.4634L59.6983 8.91952L60.9 6.03751ZM61.0164 6.21251L59.7008 9.368L58.3484 6.22126H57.7459L59.4547 10.0103L59.2469 10.4641C59.192 10.6056 59.1026 10.7312 58.9868 10.8293L58.9815 10.8338L58.9755 10.8374C58.8504 10.9129 58.7052 10.9479 58.5595 10.9375C58.4596 10.9362 58.3612 10.9161 58.2693 10.8785L58.1441 11.3233C58.2778 11.3727 58.4191 11.3991 58.5619 11.4012C58.8161 11.3898 59.0606 11.2998 59.2617 11.1437C59.4635 10.9871 59.6117 10.7717 59.6858 10.5271L59.6874 10.5218L61.6186 6.21251H61.0164ZM62.4266 6.03751H66.3949V11.4625H65.5471V6.86001H63.2745V11.4625H62.4266V6.03751ZM62.6015 6.21251V11.2875H63.0997V6.68501H65.7219V11.2875H66.2201V6.21251H62.6015ZM67.4176 6.03751H68.2655V8.28626H70.7129V6.03751H71.5607V11.4625H70.7129V9.09126H68.2655V11.4625H67.4176V6.03751ZM67.5924 6.21251V11.2875H68.0906V8.91626H70.8877V11.2875H71.3859V6.21251H70.8877V8.46126H68.0906V6.21251H67.5924ZM43.2752 7.18301C43.67 6.78945 44.2044 6.56848 44.7616 6.56848C45.3188 6.56848 45.8532 6.78945 46.248 7.18301L46.2512 7.18615C46.6392 7.61435 46.854 8.17187 46.854 8.75001C46.854 9.32815 46.6391 9.88559 46.2511 10.3138L46.2481 10.3171C45.8533 10.7107 45.3188 10.9315 44.7616 10.9315C44.2044 10.9315 43.67 10.7106 43.2752 10.317L43.3369 10.255L43.2721 10.3138C42.8841 9.88559 42.6692 9.32815 42.6692 8.75001C42.6692 8.17187 42.8841 7.61443 43.2721 7.18622L43.2752 7.18301ZM43.4001 10.1946C43.762 10.5545 44.2514 10.7565 44.7616 10.7565C45.2718 10.7565 45.7612 10.5545 46.1231 10.1946C46.481 9.79878 46.6792 9.28394 46.6792 8.75001C46.6792 8.21608 46.481 7.70124 46.1231 7.30545C45.7612 6.94553 45.2718 6.74349 44.7616 6.74349C44.2514 6.74349 43.762 6.94553 43.4001 7.30545C43.0422 7.70124 42.844 8.21608 42.844 8.75001C42.844 9.28394 43.0422 9.79878 43.4001 10.1946ZM73.5619 7.18301C73.9566 6.78945 74.4911 6.56848 75.0483 6.56848C75.6054 6.56848 76.1399 6.78945 76.5347 7.18301L76.5378 7.18615C76.9259 7.61435 77.1407 8.17187 77.1407 8.75001C77.1407 9.32815 76.9258 9.88559 76.5378 10.3138L76.5348 10.3171C76.14 10.7107 75.6054 10.9315 75.0483 10.9315C74.4911 10.9315 73.9566 10.7106 73.5619 10.317L73.6235 10.255L73.5588 10.3138C73.1708 9.88559 72.9558 9.32815 72.9558 8.75001C72.9558 8.17187 73.1708 7.61443 73.5588 7.18622L73.5619 7.18301ZM73.6868 10.1946C74.0487 10.5545 74.5381 10.7565 75.0483 10.7565C75.5584 10.7565 76.0479 10.5545 76.4098 10.1946C76.7677 9.79879 76.9659 9.28394 76.9659 8.75001C76.9659 8.21608 76.7677 7.70123 76.4098 7.30544C76.0479 6.94552 75.5584 6.74349 75.0483 6.74349C74.5381 6.74349 74.0487 6.94552 73.6868 7.30544C73.3289 7.70123 73.1306 8.21608 73.1306 8.75001C73.1306 9.28394 73.3289 9.79879 73.6868 10.1946ZM82.4504 6.65876C82.573 6.65529 82.6949 6.67876 82.8074 6.72754C82.9198 6.77622 83.0201 6.84892 83.1014 6.94053C83.1818 7.02358 83.2447 7.12188 83.2865 7.22965C83.3285 7.33809 83.3483 7.4539 83.3447 7.57017C83.3411 7.68644 83.3141 7.80079 83.2654 7.90639C83.2172 8.0108 83.1487 8.10454 83.064 8.18216C82.9785 8.27442 82.874 8.34713 82.7579 8.39532C82.641 8.44378 82.5151 8.46627 82.3887 8.46126H81.0775L81.1162 6.65876H82.4504ZM82.738 6.88814C82.6486 6.84939 82.5517 6.83081 82.4543 6.83372L82.4517 6.83376H81.2873L81.2561 8.28626H82.3941C82.4957 8.29051 82.597 8.2726 82.6909 8.23365C82.7849 8.19469 82.8692 8.1357 82.938 8.06078L82.9407 8.05786L82.9436 8.05519C83.0123 7.99284 83.0678 7.91727 83.1067 7.833C83.1455 7.74874 83.1671 7.65749 83.17 7.56471C83.1729 7.47193 83.1571 7.37952 83.1235 7.29298C83.09 7.20644 83.0393 7.12756 82.9747 7.06103L82.9717 7.05803C82.9072 6.98494 82.8274 6.92689 82.738 6.88814ZM37.9351 6.68501H40.2339V10.85H37.3693L37.4495 10.7173C37.8056 10.1273 37.975 9.44323 37.9352 8.75506L37.9349 8.75001L37.9351 6.68501ZM38.1099 6.86001V8.7475C38.1482 9.41904 37.9971 10.0868 37.6754 10.675H40.0591V6.86001H38.1099ZM81.1069 8.89876H82.5216C82.7766 8.89876 83.0212 9.00017 83.2015 9.18067C83.3818 9.36117 83.4831 9.60599 83.4831 9.86126L83.4831 9.86249C83.4796 10.1064 83.3839 10.3398 83.2151 10.5157C83.1283 10.6135 83.0212 10.691 82.9011 10.7427C82.781 10.7945 82.6509 10.8192 82.5202 10.815H81.0781L81.1069 8.89876ZM81.2791 9.07376L81.2555 10.64H82.5245C82.6301 10.6436 82.735 10.6238 82.832 10.582C82.929 10.5402 83.0155 10.4775 83.0855 10.3983L83.088 10.3955C83.2265 10.2516 83.3053 10.0604 83.3083 9.86063C83.3081 9.652 83.2252 9.45195 83.0779 9.30441C82.9303 9.15673 82.7302 9.07376 82.5216 9.07376H81.2791Z" fill="white"/>
<path d="M9.21745 28.6112L19.9254 17.4932L9.22643 6.39514C8.94066 6.56793 8.76382 6.96799 8.76382 7.49166V27.5253C8.76765 28.0489 8.9381 28.4198 9.21745 28.6112Z" fill="white"/>
<path d="M20.3089 17.1861L23.4985 13.874L10.5096 6.47885C10.2909 6.3469 10.0424 6.27721 9.7894 6.27682L20.3077 17.1848L20.3089 17.1861Z" fill="white"/>
<path d="M20.3089 17.8015L9.75735 28.7573C10.0222 28.7619 10.283 28.6902 10.5108 28.55L23.5254 21.1349L20.3089 17.8015Z" fill="white"/>
<path d="M28.204 16.5575L23.8816 14.092L20.6049 17.4945L23.906 20.9183L28.2027 18.4594C29.1164 17.9371 29.1164 17.0772 28.204 16.5575Z" fill="white"/>
</svg>
