<?xml version="1.0" encoding="utf-8"?>
<!-- Generator: Adobe Illustrator 21.0.0, SVG Export Plug-In . SVG Version: 6.00 Build 0)  -->
<svg version="1.1" id="Слой_1" xmlns="http://www.w3.org/2000/svg" xmlns:xlink="http://www.w3.org/1999/xlink" x="0px" y="0px"
	 viewBox="0 0 492.2 149.5" style="enable-background:new 0 0 492.2 149.5;" xml:space="preserve">
<style type="text/css">
	.st0{fill:#F8FF13;}
</style>
<g>
	<path class="st0" d="M90.2,69.8l5.3-18.6h24.7c13,0,20.9-5.9,24.5-18.4l2-6.9C151.3,9.9,143.8,0,127.4,0H19.9L0,69.8H90.2z
		 M127.3,18.8l-4.2,15.1h-22.6l4.3-15.1H127.3z"/>
	<path class="st0" d="M155.9,69.8l6.6-11.7h30.6v11.7h20.1V0h-39.5l-41.2,69.8H155.9z M184.7,18.9h8.3v22.2h-21L184.7,18.9z"/>
	<path class="st0" d="M295.2,32.1l1.8-6.3C301.5,9.7,294.1,0,277.6,0h-38.2l-19.9,69.8h20.9l5.5-19.2h13l5.9,19.2h21.5L280,49.3
		C287.6,46.9,292.5,41.3,295.2,32.1 M255,18.8h22.5l-4.2,15.1h-22.6L255,18.8z"/>
	<polygon class="st0" points="314.8,69.8 334.7,0 313.8,0 293.9,69.8 	"/>
	<polygon class="st0" points="186.7,79.7 163.1,107.6 153.4,79.7 62.9,79.7 43,149.5 133.2,149.5 144.2,110.9 151.5,132.5 
		165,132.5 184.4,109.6 173,149.5 193.9,149.5 213.8,79.7 	"/>
	<path class="st0" d="M241.8,79.7l-41.2,69.8h23.3l6.6-11.7h30.6v11.7h20.1V79.7H241.8z M240.2,120.9l12.6-22.2h8.3v22.2H240.2z"/>
	<polygon class="st0" points="351.9,99.7 357.6,79.7 294.1,79.7 288.4,99.7 311.3,99.7 297.1,149.5 318,149.5 332.3,99.7 	"/>
	<path class="st0" d="M379.7,99.7h31.7l5.8-19.9h-33.8c-13,0-20.9,5.9-24.5,18.4l-7.4,25.5c-4.7,16.3,2.9,25.8,19.3,25.8h26.3
		l5.7-19.9h-31.7L379.7,99.7z"/>
	<polygon class="st0" points="471.2,79.7 464.1,104.7 440.2,104.7 447.3,79.7 426.4,79.7 406.5,149.5 427.4,149.5 434.5,124.6 
		458.4,124.6 451.3,149.5 472.2,149.5 492.2,79.7 	"/>
</g>
</svg>
