<svg width="58" height="19" viewBox="0 0 58 19" fill="none" xmlns="http://www.w3.org/2000/svg">
<path d="M16.5888 0.332886L11.8565 12.8156L9.90646 3.04842C9.90646 3.04842 9.71578 0.341646 7.80036 0.341646H0V0.718317C0 0.718317 2.34877 1.11251 5.06157 2.84695H4.9749L9.13509 18.7285H13.9713L21.4857 0.332886H16.5888Z" fill="white"/>
<path d="M20.4283 18.7284H24.9958L27.9513 0.271545H23.3144L20.4283 18.7284Z" fill="white"/>
<path d="M34.7983 5.29092C34.7983 5.29092 35.4656 2.17243 41.3766 4.67773L42.0439 0.814661C42.0439 0.814661 40.0332 0 37.6151 0C35.197 0 29.9621 1.55924 29.9621 6.10558C29.9621 10.6519 36.471 10.8534 36.471 13.3675C36.471 15.8815 30.6294 15.61 28.8873 13.9806L28.1506 17.9839C28.1506 17.9839 30.7681 19 33.1169 19C35.4656 19 41.3072 18.4569 41.3072 12.5528C41.3072 7.39327 34.7983 8.40941 34.7983 5.29092Z" fill="white"/>
<path d="M53.9958 0.473022H49.9657C49.9657 0.473022 48.4923 0.639459 47.8162 2.44398C47.1749 4.15214 41.0299 18.7284 41.0299 18.7284H46.0655L46.9408 16.083H53.1118L53.6232 18.7022H57.9914L53.9958 0.473022ZM48.2929 12.2812L50.841 5.49239L52.3838 12.2812H48.2929Z" fill="white"/>
</svg>
