<svg width="55" height="33" viewBox="0 0 55 33" fill="none" xmlns="http://www.w3.org/2000/svg">
<g clip-path="url(#clip0)">
<path fill-rule="evenodd" clip-rule="evenodd" d="M26.2009 15.4529C25.5435 15.4529 25.074 15.8019 24.8862 16.5635H26.9209C27.0461 15.9606 26.8583 15.4529 26.2009 15.4529Z" fill="white"/>
<path fill-rule="evenodd" clip-rule="evenodd" d="M11.9892 17.8009C11.457 18.15 11.3318 18.8163 11.864 19.0067C12.3961 19.1971 13.1787 18.8481 13.2726 18.3086L13.3978 17.6423C13.1161 17.6106 12.5213 17.4519 11.9892 17.8009Z" fill="white"/>
<path fill-rule="evenodd" clip-rule="evenodd" d="M48.6767 17.1663C48.4576 18.0548 48.9585 18.6894 49.5219 18.6894C50.1167 18.6894 50.5236 18.2134 50.8054 17.4519C50.9619 16.9125 50.868 16.2144 50.7115 15.9606C50.2106 15.2942 49.0524 15.8336 48.6767 17.1663Z" fill="white"/>
<path fill-rule="evenodd" clip-rule="evenodd" d="M39.724 17.8009C39.1918 18.15 39.0666 18.8163 39.5988 19.0067C40.1309 19.1971 40.9135 18.8481 41.0074 18.3086L41.1326 17.6423C40.8509 17.6106 40.2561 17.4519 39.724 17.8009Z" fill="white"/>
<path fill-rule="evenodd" clip-rule="evenodd" d="M38.7223 0C34.8406 0 31.2721 1.39615 28.4861 3.7125C30.6147 5.80673 32.2738 8.44039 33.119 11.3913H31.7729C30.9277 8.75769 29.4252 6.44135 27.4844 4.56923C25.5748 6.40962 24.1036 8.75769 23.2584 11.3596H21.9124C22.7888 8.40865 24.3853 5.775 26.5139 3.7125C23.6966 1.42788 20.1594 0 16.2777 0C7.29368 0 0 7.39327 0 16.5C0 25.6067 7.29368 33 16.2777 33C20.1594 33 23.6966 31.5721 26.4826 29.2875C24.354 27.1933 22.7575 24.5596 21.8811 21.6404H23.2271C24.0723 24.274 25.5435 26.5904 27.4844 28.4625C29.4252 26.5904 30.8964 24.274 31.7729 21.6404H33.119C32.2425 24.5913 30.6147 27.225 28.4861 29.3192C31.3034 31.6356 34.8406 33.0317 38.7536 33.0317C47.7376 33.0317 55.0313 25.6385 55.0313 16.5317C55 7.39327 47.7376 0 38.7223 0ZM7.38759 20.3712L8.358 15.1673L6.07285 20.3712H4.50768L4.06944 15.0404L3.03643 20.3712H1.40865L2.8173 13.0096H5.44678L5.75982 17.4837L7.76323 13.0096H10.4553L9.07797 20.3712H7.38759ZM13.1474 20.3712L12.9283 20.0221C12.6466 20.2442 12.3961 20.3394 11.5509 20.3712C10.7057 20.4029 9.64143 19.7683 9.82926 18.5308C10.2988 15.9606 13.2413 16.4365 13.6483 16.4048C13.8361 15.4846 13.21 15.5798 12.6466 15.5481C12.0831 15.5163 11.0188 15.7067 10.6118 15.7385L10.8623 14.4058C11.9266 14.1837 12.49 14.2154 12.9909 14.1837C15.7456 14.1837 15.4639 16.1827 15.3073 17.0077L14.65 20.3394H13.1474V20.3712ZM19.815 18.6577C19.5333 20.4981 17.5925 20.3712 17.1855 20.3712C16.6221 20.3712 15.996 20.3712 15.2447 20.149L15.4639 18.8798C16.2777 19.1654 17.3734 19.0385 17.6238 19.0385C18.1873 19.0385 18.2499 18.3404 17.8429 18.1183C17.4986 17.9596 17.1542 17.7058 16.5282 17.4202C16.1525 17.2615 15.7456 16.7856 15.9647 15.6433C16.2777 14.1837 18.2186 14.1837 18.469 14.1837C18.6881 14.1837 19.3142 14.1202 20.0968 14.4058L19.7211 15.6433C19.2516 15.5163 18.469 15.5163 18.0933 15.5481C17.4986 15.7067 17.749 16.2779 18.062 16.4365C18.4064 16.5952 18.9385 16.8808 19.2516 17.1029C19.5646 17.3567 19.9402 17.7692 19.815 18.6577ZM22.6323 20.0856C22.288 20.3077 21.7871 20.3712 21.4115 20.3712C21.0359 20.3712 19.7837 20.149 20.0968 18.4673L21.2237 12.6606H22.8515L22.5071 14.2788H23.3836L23.1645 15.6433H22.3193L21.8497 18.1183C21.7558 18.5942 21.8184 19.0067 22.7575 18.8481L22.6323 20.0856ZM26.2948 19.0067C26.9522 19.0067 27.8913 18.9115 28.1417 18.8481L27.8913 20.1173C27.4844 20.3394 26.4826 20.4029 25.794 20.4029C22.9454 20.4029 23.008 17.7058 23.0706 17.325C23.1332 16.9442 23.4775 14.2788 26.107 14.2788C28.9869 14.2788 28.5487 16.6904 28.3608 17.674H24.7923C24.6044 19.0385 25.6375 19.0067 26.2948 19.0067ZM30.5521 17.6106L30.0512 20.3712H28.4235L29.5504 14.3106H30.959L31.1155 14.9135C31.366 14.6279 31.8355 14.3106 32.6807 14.3106L32.2738 15.8971C31.8042 15.9288 31.0216 15.8019 30.5521 17.6106ZM36.7814 18.499L37.251 19.9904C36.7188 20.2442 36.1554 20.3712 35.2476 20.3712C33.5572 20.3712 31.7103 18.8481 32.5242 15.7385C33.1503 13.4538 35.0911 12.5971 36.218 12.6606C37.564 12.724 38.0336 13.1683 38.4718 13.6442L37.4075 14.7231C37.0006 14.4692 36.6875 14.4375 36.1554 14.4375C35.6232 14.4375 34.4024 14.9769 34.152 16.4683C33.9015 18.2135 35.0911 19.0702 36.7814 18.499ZM40.8822 20.3712L40.6631 20.0221C40.3813 20.2442 40.1309 20.3394 39.2857 20.3712C38.4405 20.4029 37.3762 19.7683 37.564 18.5308C38.0336 15.9606 40.9761 16.4365 41.383 16.4048C41.5709 15.4846 40.9448 15.5798 40.3813 15.5481C39.8179 15.5163 38.7536 15.7067 38.3466 15.7385L38.597 14.4058C39.6614 14.1837 40.2248 14.2154 40.7257 14.1837C43.4804 14.1837 43.1986 16.1827 43.0421 17.0077L42.3848 20.3394H40.8822V20.3712ZM45.2021 17.5788L44.7012 20.3712H43.0421L44.169 14.2788H45.5777L45.7342 14.8817C45.9846 14.5962 46.4855 14.2788 47.2994 14.2788L46.8611 15.8654C46.4542 15.8654 45.7029 15.7385 45.2021 17.5788ZM50.3671 20.3712L50.148 19.8952C49.8036 20.1173 49.2715 20.3712 48.708 20.3712C47.5185 20.3712 46.4542 18.6894 46.9863 16.849C47.7689 14.0885 49.1776 14.2471 50.0854 14.2471C50.868 14.2471 51.0558 14.7231 51.3688 14.9769L51.8071 12.6288H53.5287L52.0888 20.3712H50.3671Z" fill="white"/>
</g>
<defs>
<clipPath id="clip0">
<path d="M0 0H55V33H0V0Z" fill="white"/>
</clipPath>
</defs>
</svg>
